<?xml version="1.0" encoding="utf-8"?><!DOCTYPE svg PUBLIC "-//W3C//DTD SVG 1.1//EN" "http://www.w3.org/Graphics/SVG/1.1/DTD/svg11.dtd"><svg version="1.1" id="图形" xmlns="http://www.w3.org/2000/svg" xmlns:xlink="http://www.w3.org/1999/xlink" x="0px" y="0px" width="1024px" height="1024px" viewBox="0 0 1024 1024" enable-background="new 15.167 -16.333 1024 1024" xml:space="preserve"><path fill="#272636" d="M508.689067 795.138133c-268.8 0-486.741333-217.9072-486.741333-486.741333 0-268.8 217.9072-486.741333 486.741333-486.741333 268.8 0 486.741333 217.941333 486.741333 486.741333C995.4304 577.230933 777.489067 795.138133 508.689067 795.138133zM508.689067-135.985067c-245.418667 0-444.416 198.9632-444.416 444.416s198.997333 444.416 444.416 444.416 444.416-198.997333 444.416-444.416S754.141867-135.985067 508.689067-135.985067zM531.8656 452.4736c-25.122133-25.122133-25.122133-65.8432 0-90.965333 25.122133-25.156267 65.877333-25.156267 90.965333 0 25.122133 25.122133 25.122133 65.8432 0 90.965333C597.742933 477.595733 556.987733 477.595733 531.8656 452.4736zM592.554667 391.784533c-8.3968-8.362667-21.981867-8.362667-30.378667 0-8.362667 8.3968-8.362667 21.981867 0 30.344533 8.3968 8.362667 21.981867 8.362667 30.378667 0C600.8832 413.7664 600.8832 400.181333 592.554667 391.784533zM721.237333 396.392533l0 68.642133c0 47.377067-38.434133 85.777067-85.8112 85.777067L566.954667 550.811733c-27.989333 6.690133-58.6752-0.648533-80.554667-22.528l-227.464533-227.464533c-33.4848-33.518933-33.4848-87.790933 0-121.344l90.999467-90.9312c33.4848-33.518933 87.790933-33.518933 121.309867 0l227.464533 227.464533C720.4864 337.819733 727.825067 368.4032 721.237333 396.392533zM678.2976 379.223467c0-11.844267-4.8128-22.562133-12.561067-30.3104l2.594133-2.594133-52.8384-52.8384-53.316267-53.316267-106.120533-106.120533-15.1552-15.121067c-16.759467-16.7936-43.9296-16.7936-60.654933 0l-90.965333 90.9312c-16.759467 16.7936-16.759467 43.9296 0 60.654933l174.592 174.626133 52.8384 52.8384 2.594133-2.594133c7.7824 7.7824 18.500267 12.561067 30.344533 12.561067l85.8112 0c23.688533 0 42.871467-19.217067 42.871467-42.871467L678.331733 379.223467z" transform="translate(0, 800) scale(1, -1)"/></svg>