<?xml version="1.0" encoding="utf-8"?><!DOCTYPE svg PUBLIC "-//W3C//DTD SVG 1.1//EN" "http://www.w3.org/Graphics/SVG/1.1/DTD/svg11.dtd"><svg version="1.1" id="图形" xmlns="http://www.w3.org/2000/svg" xmlns:xlink="http://www.w3.org/1999/xlink" x="0px" y="0px" width="1024px" height="1024px" viewBox="0 0 1024 1024" enable-background="new 15.167 -16.333 1024 1024" xml:space="preserve"><path fill="#11cd6e" d="M511.4816 664.71424c-232.76928 0-421.39136-188.66048-421.39136-421.39008 0-105.60896 38.96192-202.09152 103.17696-276.05376l-98.57664-120.832 29.66656-24.20736 95.52768 117.05728c75.70048-72.61312 178.39104-117.3184 291.5968-117.3184 113.4656 0 216.38144 44.93056 292.15616 117.8816l95.47264-117.76896 29.77792 24.13184-98.65088 121.69472c63.8976 73.88672 102.63552 170.1056 102.63552 275.41632C932.87168 476.05376 744.17408 664.71424 511.4816 664.71424zM511.4816-139.72224c-211.2384 0-383.08352 171.8272-383.08352 383.0464 0 211.25504 171.84512 383.08352 383.08352 383.08352 211.23712 0 383.08224-171.8272 383.08224-383.08352C894.56384 32.10496 722.71872-139.72224 511.4816-139.72224zM338.25152 779.67744l-113.80224 0c-105.79584 0-191.54176-85.74464-191.54176-191.54176l0-115.26144 54.46912 0L338.25152 725.16992 338.25152 779.67744zM299.9424 740.95744 71.44064 511.18208l-0.224 0 0 76.9536c0 84.4736 68.74112 153.23392 153.23264 153.23392l75.49312 0L299.9424 740.95744zM799.07328 779.67744 685.1968 779.67744l0-54.50624 250.91072-252.29568 54.50752 0 0 115.26144C990.61504 693.9328 904.832 779.67744 799.07328 779.67744zM952.30592 511.18208l-0.2624 0L723.50464 740.95744 723.50464 741.3696l75.56864 0c84.4928 0 153.23264-68.76032 153.23264-153.23392L952.30592 511.18208zM492.608 243.36128 281.42464 243.36128 281.42464 205.05216 530.91456 205.05216 530.91456 549.82784 492.608 549.82784Z" transform="translate(0, 800) scale(1, -1)"/></svg>